<?xml version="1.0" standalone="no"?>
<!DOCTYPE svg PUBLIC "-//W3C//DTD SVG 20010904//EN"
 "http://www.w3.org/TR/2001/REC-SVG-20010904/DTD/svg10.dtd">
<svg version="1.0" xmlns="http://www.w3.org/2000/svg"
 width="512.000000pt" height="512.000000pt" viewBox="0 0 512.000000 512.000000"
 preserveAspectRatio="xMidYMid meet">

<g transform="translate(0.000000,512.000000) scale(0.100000,-0.100000)"
fill="#000000" stroke="none">
<path d="M2000 4947 c-49 -16 -133 -102 -148 -153 -9 -30 -12 -169 -12 -498
l0 -456 -80 0 -80 0 0 -136 c0 -78 5 -154 12 -178 16 -55 99 -138 154 -154 31
-9 215 -12 716 -12 769 0 736 -3 811 80 57 64 67 101 67 264 l0 136 -80 0 -80
0 0 456 c0 324 -3 468 -12 496 -6 22 -31 62 -55 88 -73 82 -60 80 -657 79
-349 -1 -533 -5 -556 -12z m1095 -172 l25 -24 0 -456 0 -455 -560 0 -560 0 0
455 0 456 25 24 24 25 511 0 511 0 24 -25z m185 -1150 c0 -46 -4 -60 -25 -80
l-24 -25 -671 0 -671 0 -24 25 c-21 20 -25 34 -25 80 l0 55 720 0 720 0 0 -55z"/>
<path d="M2335 4626 c-41 -18 -83 -69 -90 -109 -4 -18 -5 -123 -3 -234 3 -185
5 -204 24 -229 39 -52 71 -69 133 -69 57 0 61 2 215 104 175 116 198 143 198
221 0 77 -21 101 -194 217 -136 92 -163 106 -205 110 -28 2 -61 -3 -78 -11z
m314 -316 c0 -3 -56 -42 -124 -88 l-125 -82 0 170 0 170 125 -82 c68 -46 124
-85 124 -88z"/>
<path d="M1530 4549 c-483 -259 -843 -654 -1045 -1147 -21 -51 -36 -94 -34
-95 2 -2 36 -15 75 -28 l71 -25 42 102 c186 452 549 842 989 1063 45 23 82 43
82 45 0 18 -63 136 -73 136 -6 0 -55 -23 -107 -51z"/>
<path d="M3440 4534 c-16 -37 -30 -68 -30 -70 0 -2 37 -22 82 -45 167 -84 336
-201 491 -341 l58 -52 54 54 55 54 -43 44 c-60 62 -228 196 -322 258 -88 57
-285 164 -303 164 -7 0 -25 -30 -42 -66z"/>
<path d="M4321 4083 c-46 -104 -85 -193 -88 -199 -3 -9 136 -79 143 -72 3 4
174 390 174 394 0 5 -130 64 -139 64 -4 0 -44 -84 -90 -187z"/>
<path d="M4721 4083 c-46 -104 -85 -193 -88 -199 -3 -9 136 -79 143 -72 3 4
174 390 174 394 0 5 -130 64 -139 64 -4 0 -44 -84 -90 -187z"/>
<path d="M4121 3634 c-17 -42 -31 -78 -29 -80 8 -7 140 -65 142 -62 6 8 66
149 66 154 0 5 -127 64 -139 64 -4 0 -22 -34 -40 -76z"/>
<path d="M4521 3634 c-17 -42 -31 -78 -29 -80 8 -7 140 -65 142 -62 6 8 66
149 66 154 0 5 -127 64 -139 64 -4 0 -22 -34 -40 -76z"/>
<path d="M3522 3339 c7 -121 38 -229 96 -324 48 -80 202 -232 281 -279 70 -40
194 -86 235 -86 26 0 26 0 26 -85 l0 -85 -240 0 -240 0 0 -80 0 -80 45 0 c25
0 45 -3 45 -8 0 -4 13 -109 29 -233 31 -240 42 -279 98 -331 15 -15 48 -36 73
-47 41 -19 65 -21 270 -21 205 0 229 2 270 21 25 11 58 32 73 47 56 52 67 91
98 331 16 124 29 229 29 233 0 5 20 8 45 8 l45 0 0 80 0 80 -240 0 -240 0 0
85 c0 85 0 85 26 85 41 0 174 49 239 88 77 46 231 200 277 277 58 95 89 203
96 324 l5 104 -104 -5 c-121 -7 -229 -38 -324 -96 -69 -41 -241 -210 -270
-265 -11 -20 -22 -37 -25 -37 -3 0 -15 18 -27 39 -36 63 -170 197 -249 251
-100 66 -208 100 -343 107 l-104 6 5 -104z m298 -111 c49 -23 88 -54 161 -127
97 -97 146 -175 164 -260 l7 -33 -33 7 c-85 18 -163 67 -260 164 -97 97 -146
175 -164 260 l-7 33 33 -7 c19 -4 63 -21 99 -37z m965 10 c-18 -84 -67 -162
-164 -259 -97 -97 -175 -146 -260 -164 l-33 -7 7 33 c16 76 68 162 147 245 88
92 149 135 229 164 76 27 82 26 74 -12z m-240 -950 c-3 -18 -14 -107 -25 -198
-25 -203 -25 -205 -52 -230 -20 -19 -35 -20 -228 -20 -272 0 -247 -22 -280
250 -11 91 -22 180 -25 198 l-6 32 311 0 311 0 -6 -32z"/>
<path d="M2582 3185 c-113 -25 -226 -87 -313 -174 -251 -252 -251 -651 0 -900
252 -251 647 -254 895 -6 122 121 184 256 193 419 7 119 -14 216 -69 326 -128
256 -423 396 -706 335z m253 -160 c238 -62 393 -291 358 -531 -30 -212 -196
-377 -409 -407 -329 -48 -612 266 -529 586 67 258 329 417 580 352z"/>
<path d="M2640 2738 l0 -143 -107 -107 -108 -108 58 -57 57 -58 130 130 130
130 0 177 0 178 -80 0 -80 0 0 -142z"/>
<path d="M320 3107 c-49 -16 -133 -102 -148 -153 -17 -58 -17 -730 0 -788 16
-55 99 -138 154 -154 23 -7 93 -12 156 -12 146 0 192 15 251 80 49 55 67 103
67 184 l0 56 200 0 200 0 0 -56 c0 -31 5 -75 12 -98 16 -55 99 -138 154 -154
61 -18 260 -16 317 4 57 19 128 93 145 152 17 55 17 729 0 784 -17 59 -88 133
-145 152 -57 20 -256 22 -317 4 -55 -16 -138 -99 -154 -154 -7 -23 -12 -67
-12 -98 l0 -56 -200 0 -200 0 0 56 c0 81 -18 129 -67 184 -60 67 -104 80 -257
79 -67 -1 -137 -6 -156 -12z m295 -172 l25 -24 0 -351 0 -351 -25 -24 c-23
-24 -31 -25 -135 -25 -104 0 -112 1 -135 25 l-25 24 0 351 0 351 25 24 c23 24
31 25 135 25 104 0 112 -1 135 -25z m1040 0 l25 -24 0 -351 0 -351 -25 -24
c-23 -24 -31 -25 -135 -25 -104 0 -112 1 -135 25 l-25 24 0 351 0 351 25 24
c23 24 31 25 135 25 104 0 112 -1 135 -25z m-455 -375 l0 -80 -200 0 -200 0 0
80 0 80 200 0 200 0 0 -80z"/>
<path d="M3260 1909 c-62 -28 -332 -296 -365 -363 -31 -63 -33 -142 -5 -205
25 -54 197 -232 260 -269 39 -23 58 -27 150 -30 l105 -4 350 -348 c311 -308
356 -349 399 -364 98 -32 192 -11 261 59 70 69 91 163 59 261 -15 43 -56 88
-364 399 l-348 350 -4 105 c-3 76 -9 115 -22 140 -31 59 -215 240 -271 266
-64 30 -143 31 -205 3z m238 -243 l102 -103 0 -119 0 -119 365 -365 c332 -333
365 -369 365 -399 0 -45 -46 -91 -91 -91 -30 0 -66 33 -399 365 l-365 365
-119 0 -119 0 -103 102 c-145 142 -147 130 43 320 190 191 179 189 321 44z"/>
<path d="M525 1841 c-38 -13 -72 -26 -74 -27 -7 -6 70 -187 125 -292 93 -178
251 -398 366 -509 l44 -43 53 54 54 54 -29 35 c-16 18 -60 69 -98 113 -127
146 -261 370 -336 559 -17 44 -32 80 -33 81 -1 0 -33 -11 -72 -25z"/>
<path d="M2160 1600 l0 -80 80 0 80 0 0 80 0 80 -80 0 -80 0 0 -80z"/>
<path d="M1600 1520 l0 -80 80 0 80 0 0 80 0 80 -80 0 -80 0 0 -80z"/>
<path d="M4351 1502 c-19 -31 -65 -101 -103 -155 -39 -54 -68 -99 -66 -101 1
-1 29 -24 60 -50 l57 -47 40 51 c72 91 189 277 179 284 -2 2 -32 19 -68 39
l-66 36 -33 -57z"/>
<path d="M2480 1440 l0 -80 80 0 80 0 0 80 0 80 -80 0 -80 0 0 -80z"/>
<path d="M1920 1360 l0 -80 80 0 80 0 0 80 0 80 -80 0 -80 0 0 -80z"/>
<path d="M2160 1120 l0 -80 80 0 80 0 0 80 0 80 -80 0 -80 0 0 -80z"/>
<path d="M1680 1040 l0 -80 80 0 80 0 0 80 0 80 -80 0 -80 0 0 -80z"/>
<path d="M2640 1040 l0 -80 80 0 80 0 0 80 0 80 -80 0 -80 0 0 -80z"/>
<path d="M880 787 c-19 -6 -58 -34 -85 -62 -71 -70 -91 -145 -63 -239 16 -55
99 -138 154 -154 29 -8 151 -12 414 -12 l373 0 49 -46 c27 -25 79 -60 116 -77
l67 -32 656 0 655 0 76 37 c91 45 147 103 191 196 31 66 32 71 35 235 l4 167
-1303 -1 c-920 -1 -1314 -4 -1339 -12z m720 -211 c0 -35 3 -71 6 -80 6 -14
-28 -16 -335 -16 l-342 0 -24 25 c-16 15 -25 36 -25 55 0 19 9 40 25 55 l24
25 336 0 335 0 0 -64z m1760 8 c0 -31 -5 -75 -12 -98 -16 -55 -99 -138 -154
-154 -59 -17 -1209 -17 -1268 0 -55 16 -138 99 -154 154 -7 23 -12 67 -12 98
l0 56 800 0 800 0 0 -56z"/>
</g>
</svg>
